<mxfile host="app.diagrams.net" modified="2024-03-14T02:45:56.375Z" agent="Mozilla/5.0 (Windows NT 10.0; Win64; x64) AppleWebKit/537.36 (KHTML, like Gecko) Chrome/122.0.0.0 Safari/537.36" etag="IWZGZPoT-HMMEO_NWDYq" version="24.0.6" type="github">
  <diagram name="PÃ¡gina-1" id="aYtTOjOPXWL-JHapWkfF">
    <mxGraphModel dx="880" dy="468" grid="1" gridSize="10" guides="1" tooltips="1" connect="1" arrows="1" fold="1" page="1" pageScale="1" pageWidth="827" pageHeight="1169" math="0" shadow="0">
      <root>
        <mxCell id="0" />
        <mxCell id="1" parent="0" />
        <mxCell id="yBSICujKQYAB_PKDXEbt-90" value="" style="rounded=0;whiteSpace=wrap;html=1;" vertex="1" parent="1">
          <mxGeometry x="810" y="120" width="150" height="1070" as="geometry" />
        </mxCell>
        <mxCell id="yBSICujKQYAB_PKDXEbt-89" value="" style="rounded=0;whiteSpace=wrap;html=1;" vertex="1" parent="1">
          <mxGeometry x="680" y="120" width="130" height="1070" as="geometry" />
        </mxCell>
        <mxCell id="yBSICujKQYAB_PKDXEbt-88" value="" style="rounded=0;whiteSpace=wrap;html=1;" vertex="1" parent="1">
          <mxGeometry x="470" y="120" width="210" height="1070" as="geometry" />
        </mxCell>
        <mxCell id="yBSICujKQYAB_PKDXEbt-87" value="" style="rounded=0;whiteSpace=wrap;html=1;" vertex="1" parent="1">
          <mxGeometry x="260" y="120" width="210" height="1070" as="geometry" />
        </mxCell>
        <mxCell id="yBSICujKQYAB_PKDXEbt-86" value="" style="rounded=0;whiteSpace=wrap;html=1;" vertex="1" parent="1">
          <mxGeometry y="120" width="260" height="1070" as="geometry" />
        </mxCell>
        <mxCell id="yBSICujKQYAB_PKDXEbt-6" style="edgeStyle=orthogonalEdgeStyle;rounded=0;orthogonalLoop=1;jettySize=auto;html=1;entryX=0;entryY=0.5;entryDx=0;entryDy=0;" edge="1" parent="1" source="yBSICujKQYAB_PKDXEbt-2" target="yBSICujKQYAB_PKDXEbt-4">
          <mxGeometry relative="1" as="geometry" />
        </mxCell>
        <mxCell id="yBSICujKQYAB_PKDXEbt-2" value="idp.ucuenca.edu.ec" style="rounded=0;whiteSpace=wrap;html=1;fontSize=14;" vertex="1" parent="1">
          <mxGeometry x="20" y="200" width="170" height="40" as="geometry" />
        </mxCell>
        <mxCell id="yBSICujKQYAB_PKDXEbt-15" style="edgeStyle=orthogonalEdgeStyle;rounded=0;orthogonalLoop=1;jettySize=auto;html=1;exitX=1;exitY=0.5;exitDx=0;exitDy=0;entryX=0;entryY=0.5;entryDx=0;entryDy=0;" edge="1" parent="1" source="yBSICujKQYAB_PKDXEbt-4" target="yBSICujKQYAB_PKDXEbt-9">
          <mxGeometry relative="1" as="geometry" />
        </mxCell>
        <mxCell id="yBSICujKQYAB_PKDXEbt-17" style="edgeStyle=orthogonalEdgeStyle;rounded=0;orthogonalLoop=1;jettySize=auto;html=1;exitX=1;exitY=0.5;exitDx=0;exitDy=0;entryX=0;entryY=0.5;entryDx=0;entryDy=0;" edge="1" parent="1" source="yBSICujKQYAB_PKDXEbt-4" target="yBSICujKQYAB_PKDXEbt-10">
          <mxGeometry relative="1" as="geometry" />
        </mxCell>
        <mxCell id="yBSICujKQYAB_PKDXEbt-18" style="edgeStyle=orthogonalEdgeStyle;rounded=0;orthogonalLoop=1;jettySize=auto;html=1;exitX=1;exitY=0.5;exitDx=0;exitDy=0;entryX=0;entryY=0.5;entryDx=0;entryDy=0;" edge="1" parent="1" source="yBSICujKQYAB_PKDXEbt-4" target="yBSICujKQYAB_PKDXEbt-12">
          <mxGeometry relative="1" as="geometry" />
        </mxCell>
        <mxCell id="yBSICujKQYAB_PKDXEbt-19" style="edgeStyle=orthogonalEdgeStyle;rounded=0;orthogonalLoop=1;jettySize=auto;html=1;exitX=0.5;exitY=1;exitDx=0;exitDy=0;entryX=0.5;entryY=1;entryDx=0;entryDy=0;" edge="1" parent="1" source="yBSICujKQYAB_PKDXEbt-4" target="yBSICujKQYAB_PKDXEbt-8">
          <mxGeometry relative="1" as="geometry">
            <Array as="points">
              <mxPoint x="360" y="320" />
              <mxPoint x="745" y="320" />
            </Array>
          </mxGeometry>
        </mxCell>
        <mxCell id="yBSICujKQYAB_PKDXEbt-4" value="GAS" style="rounded=0;whiteSpace=wrap;html=1;fontSize=20;" vertex="1" parent="1">
          <mxGeometry x="280" y="180" width="160" height="80" as="geometry" />
        </mxCell>
        <mxCell id="yBSICujKQYAB_PKDXEbt-82" style="edgeStyle=orthogonalEdgeStyle;rounded=0;orthogonalLoop=1;jettySize=auto;html=1;exitX=1;exitY=0.5;exitDx=0;exitDy=0;entryX=0.5;entryY=0;entryDx=0;entryDy=0;" edge="1" parent="1" source="yBSICujKQYAB_PKDXEbt-8" target="yBSICujKQYAB_PKDXEbt-81">
          <mxGeometry relative="1" as="geometry" />
        </mxCell>
        <mxCell id="yBSICujKQYAB_PKDXEbt-8" value="MongoDB" style="shape=datastore;whiteSpace=wrap;html=1;" vertex="1" parent="1">
          <mxGeometry x="715" y="190" width="60" height="60" as="geometry" />
        </mxCell>
        <mxCell id="yBSICujKQYAB_PKDXEbt-9" value="SGM" style="rounded=0;whiteSpace=wrap;html=1;fontSize=15;" vertex="1" parent="1">
          <mxGeometry x="520" y="140" width="120" height="40" as="geometry" />
        </mxCell>
        <mxCell id="yBSICujKQYAB_PKDXEbt-10" value="SGA" style="rounded=0;whiteSpace=wrap;html=1;fontSize=15;" vertex="1" parent="1">
          <mxGeometry x="520" y="200" width="120" height="40" as="geometry" />
        </mxCell>
        <mxCell id="yBSICujKQYAB_PKDXEbt-12" value="SGTH" style="rounded=0;whiteSpace=wrap;html=1;fontSize=15;" vertex="1" parent="1">
          <mxGeometry x="520" y="260" width="120" height="40" as="geometry" />
        </mxCell>
        <mxCell id="yBSICujKQYAB_PKDXEbt-22" style="edgeStyle=orthogonalEdgeStyle;rounded=0;orthogonalLoop=1;jettySize=auto;html=1;exitX=1;exitY=0.5;exitDx=0;exitDy=0;" edge="1" parent="1" source="yBSICujKQYAB_PKDXEbt-21">
          <mxGeometry relative="1" as="geometry">
            <mxPoint x="240" y="220" as="targetPoint" />
          </mxGeometry>
        </mxCell>
        <mxCell id="yBSICujKQYAB_PKDXEbt-21" value="Google Account" style="rounded=0;whiteSpace=wrap;html=1;fontSize=14;" vertex="1" parent="1">
          <mxGeometry x="20" y="260" width="170" height="40" as="geometry" />
        </mxCell>
        <mxCell id="yBSICujKQYAB_PKDXEbt-23" style="edgeStyle=orthogonalEdgeStyle;rounded=0;orthogonalLoop=1;jettySize=auto;html=1;entryX=0;entryY=0.5;entryDx=0;entryDy=0;" edge="1" parent="1" source="yBSICujKQYAB_PKDXEbt-24" target="yBSICujKQYAB_PKDXEbt-29">
          <mxGeometry relative="1" as="geometry" />
        </mxCell>
        <mxCell id="yBSICujKQYAB_PKDXEbt-24" value="servicios.ucuenca.edu.ec" style="rounded=0;whiteSpace=wrap;html=1;fontSize=14;" vertex="1" parent="1">
          <mxGeometry x="20" y="410" width="170" height="40" as="geometry" />
        </mxCell>
        <mxCell id="yBSICujKQYAB_PKDXEbt-25" style="edgeStyle=orthogonalEdgeStyle;rounded=0;orthogonalLoop=1;jettySize=auto;html=1;exitX=1;exitY=0.5;exitDx=0;exitDy=0;entryX=0;entryY=0.5;entryDx=0;entryDy=0;" edge="1" parent="1" source="yBSICujKQYAB_PKDXEbt-29" target="yBSICujKQYAB_PKDXEbt-31">
          <mxGeometry relative="1" as="geometry" />
        </mxCell>
        <mxCell id="yBSICujKQYAB_PKDXEbt-26" style="edgeStyle=orthogonalEdgeStyle;rounded=0;orthogonalLoop=1;jettySize=auto;html=1;exitX=1;exitY=0.5;exitDx=0;exitDy=0;entryX=0;entryY=0.5;entryDx=0;entryDy=0;" edge="1" parent="1" source="yBSICujKQYAB_PKDXEbt-29" target="yBSICujKQYAB_PKDXEbt-32">
          <mxGeometry relative="1" as="geometry" />
        </mxCell>
        <mxCell id="yBSICujKQYAB_PKDXEbt-28" style="edgeStyle=orthogonalEdgeStyle;rounded=0;orthogonalLoop=1;jettySize=auto;html=1;exitX=0.5;exitY=1;exitDx=0;exitDy=0;entryX=0.5;entryY=1;entryDx=0;entryDy=0;" edge="1" parent="1" source="yBSICujKQYAB_PKDXEbt-29" target="yBSICujKQYAB_PKDXEbt-30">
          <mxGeometry relative="1" as="geometry">
            <Array as="points">
              <mxPoint x="360" y="500" />
              <mxPoint x="745" y="500" />
            </Array>
          </mxGeometry>
        </mxCell>
        <mxCell id="yBSICujKQYAB_PKDXEbt-29" value="Active Directory" style="rounded=0;whiteSpace=wrap;html=1;fontSize=20;" vertex="1" parent="1">
          <mxGeometry x="280" y="390" width="160" height="80" as="geometry" />
        </mxCell>
        <mxCell id="yBSICujKQYAB_PKDXEbt-83" style="edgeStyle=orthogonalEdgeStyle;rounded=0;orthogonalLoop=1;jettySize=auto;html=1;exitX=1;exitY=0.5;exitDx=0;exitDy=0;entryX=0;entryY=0.5;entryDx=0;entryDy=0;" edge="1" parent="1" source="yBSICujKQYAB_PKDXEbt-30" target="yBSICujKQYAB_PKDXEbt-81">
          <mxGeometry relative="1" as="geometry" />
        </mxCell>
        <mxCell id="yBSICujKQYAB_PKDXEbt-30" value="" style="shape=datastore;whiteSpace=wrap;html=1;" vertex="1" parent="1">
          <mxGeometry x="715" y="400" width="60" height="60" as="geometry" />
        </mxCell>
        <mxCell id="yBSICujKQYAB_PKDXEbt-31" value="GLPI" style="rounded=0;whiteSpace=wrap;html=1;fontSize=15;" vertex="1" parent="1">
          <mxGeometry x="520" y="350" width="120" height="40" as="geometry" />
        </mxCell>
        <mxCell id="yBSICujKQYAB_PKDXEbt-32" value="Procesos" style="rounded=0;whiteSpace=wrap;html=1;fontSize=15;" vertex="1" parent="1">
          <mxGeometry x="520" y="410" width="120" height="40" as="geometry" />
        </mxCell>
        <mxCell id="yBSICujKQYAB_PKDXEbt-34" style="edgeStyle=orthogonalEdgeStyle;rounded=0;orthogonalLoop=1;jettySize=auto;html=1;exitX=1;exitY=0.5;exitDx=0;exitDy=0;" edge="1" parent="1" source="yBSICujKQYAB_PKDXEbt-35">
          <mxGeometry relative="1" as="geometry">
            <mxPoint x="240" y="430" as="targetPoint" />
          </mxGeometry>
        </mxCell>
        <mxCell id="yBSICujKQYAB_PKDXEbt-35" value="procesos.ucuenca.edu.ec" style="rounded=0;whiteSpace=wrap;html=1;fontSize=14;" vertex="1" parent="1">
          <mxGeometry x="20" y="470" width="170" height="40" as="geometry" />
        </mxCell>
        <mxCell id="yBSICujKQYAB_PKDXEbt-48" style="edgeStyle=orthogonalEdgeStyle;rounded=0;orthogonalLoop=1;jettySize=auto;html=1;entryX=0;entryY=0.5;entryDx=0;entryDy=0;" edge="1" parent="1" source="yBSICujKQYAB_PKDXEbt-49" target="yBSICujKQYAB_PKDXEbt-54">
          <mxGeometry relative="1" as="geometry" />
        </mxCell>
        <mxCell id="yBSICujKQYAB_PKDXEbt-49" value="siuc.ucuenca.edu.ec" style="rounded=0;whiteSpace=wrap;html=1;fontSize=14;" vertex="1" parent="1">
          <mxGeometry x="20" y="590" width="170" height="40" as="geometry" />
        </mxCell>
        <mxCell id="yBSICujKQYAB_PKDXEbt-50" style="edgeStyle=orthogonalEdgeStyle;rounded=0;orthogonalLoop=1;jettySize=auto;html=1;exitX=1;exitY=0.5;exitDx=0;exitDy=0;entryX=0;entryY=0.5;entryDx=0;entryDy=0;" edge="1" parent="1" source="yBSICujKQYAB_PKDXEbt-54" target="yBSICujKQYAB_PKDXEbt-56">
          <mxGeometry relative="1" as="geometry" />
        </mxCell>
        <mxCell id="yBSICujKQYAB_PKDXEbt-51" style="edgeStyle=orthogonalEdgeStyle;rounded=0;orthogonalLoop=1;jettySize=auto;html=1;exitX=1;exitY=0.5;exitDx=0;exitDy=0;entryX=0;entryY=0.5;entryDx=0;entryDy=0;" edge="1" parent="1" source="yBSICujKQYAB_PKDXEbt-54" target="yBSICujKQYAB_PKDXEbt-57">
          <mxGeometry relative="1" as="geometry" />
        </mxCell>
        <mxCell id="yBSICujKQYAB_PKDXEbt-52" style="edgeStyle=orthogonalEdgeStyle;rounded=0;orthogonalLoop=1;jettySize=auto;html=1;exitX=1;exitY=0.5;exitDx=0;exitDy=0;entryX=0;entryY=0.5;entryDx=0;entryDy=0;" edge="1" parent="1" source="yBSICujKQYAB_PKDXEbt-54" target="yBSICujKQYAB_PKDXEbt-58">
          <mxGeometry relative="1" as="geometry" />
        </mxCell>
        <mxCell id="yBSICujKQYAB_PKDXEbt-53" style="edgeStyle=orthogonalEdgeStyle;rounded=0;orthogonalLoop=1;jettySize=auto;html=1;exitX=0.5;exitY=1;exitDx=0;exitDy=0;entryX=0.5;entryY=1;entryDx=0;entryDy=0;" edge="1" parent="1" source="yBSICujKQYAB_PKDXEbt-54" target="yBSICujKQYAB_PKDXEbt-55">
          <mxGeometry relative="1" as="geometry">
            <Array as="points">
              <mxPoint x="360" y="710" />
              <mxPoint x="745" y="710" />
            </Array>
          </mxGeometry>
        </mxCell>
        <mxCell id="yBSICujKQYAB_PKDXEbt-54" value="SIUC" style="rounded=0;whiteSpace=wrap;html=1;fontSize=20;" vertex="1" parent="1">
          <mxGeometry x="280" y="570" width="160" height="80" as="geometry" />
        </mxCell>
        <mxCell id="yBSICujKQYAB_PKDXEbt-93" style="edgeStyle=orthogonalEdgeStyle;rounded=0;orthogonalLoop=1;jettySize=auto;html=1;exitX=1;exitY=0.5;exitDx=0;exitDy=0;" edge="1" parent="1" source="yBSICujKQYAB_PKDXEbt-55">
          <mxGeometry relative="1" as="geometry">
            <mxPoint x="800" y="510" as="targetPoint" />
          </mxGeometry>
        </mxCell>
        <mxCell id="yBSICujKQYAB_PKDXEbt-55" value="Oracle" style="shape=datastore;whiteSpace=wrap;html=1;" vertex="1" parent="1">
          <mxGeometry x="715" y="580" width="60" height="60" as="geometry" />
        </mxCell>
        <mxCell id="yBSICujKQYAB_PKDXEbt-56" value="SIUC_SGAP" style="rounded=0;whiteSpace=wrap;html=1;fontSize=15;" vertex="1" parent="1">
          <mxGeometry x="520" y="530" width="120" height="40" as="geometry" />
        </mxCell>
        <mxCell id="yBSICujKQYAB_PKDXEbt-57" value="SIUC_SGA" style="rounded=0;whiteSpace=wrap;html=1;fontSize=15;" vertex="1" parent="1">
          <mxGeometry x="520" y="590" width="120" height="40" as="geometry" />
        </mxCell>
        <mxCell id="yBSICujKQYAB_PKDXEbt-58" value="SIUC_SGM" style="rounded=0;whiteSpace=wrap;html=1;fontSize=15;" vertex="1" parent="1">
          <mxGeometry x="520" y="650" width="120" height="40" as="geometry" />
        </mxCell>
        <mxCell id="yBSICujKQYAB_PKDXEbt-61" style="edgeStyle=orthogonalEdgeStyle;rounded=0;orthogonalLoop=1;jettySize=auto;html=1;entryX=0;entryY=0.5;entryDx=0;entryDy=0;" edge="1" parent="1" source="yBSICujKQYAB_PKDXEbt-62" target="yBSICujKQYAB_PKDXEbt-66">
          <mxGeometry relative="1" as="geometry" />
        </mxCell>
        <mxCell id="yBSICujKQYAB_PKDXEbt-62" value="grado.ucuenca.edu.ec" style="rounded=0;whiteSpace=wrap;html=1;fontSize=14;" vertex="1" parent="1">
          <mxGeometry x="20" y="920" width="170" height="40" as="geometry" />
        </mxCell>
        <mxCell id="yBSICujKQYAB_PKDXEbt-64" style="edgeStyle=orthogonalEdgeStyle;rounded=0;orthogonalLoop=1;jettySize=auto;html=1;exitX=1;exitY=0.5;exitDx=0;exitDy=0;entryX=0;entryY=0.5;entryDx=0;entryDy=0;" edge="1" parent="1" source="yBSICujKQYAB_PKDXEbt-66" target="yBSICujKQYAB_PKDXEbt-69">
          <mxGeometry relative="1" as="geometry" />
        </mxCell>
        <mxCell id="yBSICujKQYAB_PKDXEbt-65" style="edgeStyle=orthogonalEdgeStyle;rounded=0;orthogonalLoop=1;jettySize=auto;html=1;exitX=0.5;exitY=1;exitDx=0;exitDy=0;entryX=0.5;entryY=1;entryDx=0;entryDy=0;" edge="1" parent="1" source="yBSICujKQYAB_PKDXEbt-66" target="yBSICujKQYAB_PKDXEbt-67">
          <mxGeometry relative="1" as="geometry">
            <Array as="points">
              <mxPoint x="360" y="1010" />
              <mxPoint x="745" y="1010" />
            </Array>
          </mxGeometry>
        </mxCell>
        <mxCell id="yBSICujKQYAB_PKDXEbt-66" value="Google" style="rounded=0;whiteSpace=wrap;html=1;fontSize=20;" vertex="1" parent="1">
          <mxGeometry x="280" y="900" width="160" height="80" as="geometry" />
        </mxCell>
        <mxCell id="yBSICujKQYAB_PKDXEbt-110" style="edgeStyle=orthogonalEdgeStyle;rounded=0;orthogonalLoop=1;jettySize=auto;html=1;exitX=1;exitY=0.5;exitDx=0;exitDy=0;" edge="1" parent="1">
          <mxGeometry relative="1" as="geometry">
            <mxPoint x="885" y="790" as="targetPoint" />
            <mxPoint x="770" y="940" as="sourcePoint" />
          </mxGeometry>
        </mxCell>
        <mxCell id="yBSICujKQYAB_PKDXEbt-67" value="" style="shape=datastore;whiteSpace=wrap;html=1;" vertex="1" parent="1">
          <mxGeometry x="715" y="910" width="60" height="60" as="geometry" />
        </mxCell>
        <mxCell id="yBSICujKQYAB_PKDXEbt-69" value="Moodle" style="rounded=0;whiteSpace=wrap;html=1;fontSize=15;" vertex="1" parent="1">
          <mxGeometry x="520" y="920" width="120" height="40" as="geometry" />
        </mxCell>
        <mxCell id="yBSICujKQYAB_PKDXEbt-72" style="edgeStyle=orthogonalEdgeStyle;rounded=0;orthogonalLoop=1;jettySize=auto;html=1;entryX=0;entryY=0.5;entryDx=0;entryDy=0;" edge="1" parent="1" source="yBSICujKQYAB_PKDXEbt-73" target="yBSICujKQYAB_PKDXEbt-76">
          <mxGeometry relative="1" as="geometry" />
        </mxCell>
        <mxCell id="yBSICujKQYAB_PKDXEbt-73" value="sgp.ucuenca.edu.ec" style="rounded=0;whiteSpace=wrap;html=1;fontSize=14;" vertex="1" parent="1">
          <mxGeometry x="20" y="770" width="170" height="40" as="geometry" />
        </mxCell>
        <mxCell id="yBSICujKQYAB_PKDXEbt-74" style="edgeStyle=orthogonalEdgeStyle;rounded=0;orthogonalLoop=1;jettySize=auto;html=1;exitX=1;exitY=0.5;exitDx=0;exitDy=0;entryX=0;entryY=0.5;entryDx=0;entryDy=0;" edge="1" parent="1" source="yBSICujKQYAB_PKDXEbt-76" target="yBSICujKQYAB_PKDXEbt-78">
          <mxGeometry relative="1" as="geometry" />
        </mxCell>
        <mxCell id="yBSICujKQYAB_PKDXEbt-75" style="edgeStyle=orthogonalEdgeStyle;rounded=0;orthogonalLoop=1;jettySize=auto;html=1;exitX=0.5;exitY=1;exitDx=0;exitDy=0;entryX=0.5;entryY=1;entryDx=0;entryDy=0;" edge="1" parent="1" source="yBSICujKQYAB_PKDXEbt-76" target="yBSICujKQYAB_PKDXEbt-77">
          <mxGeometry relative="1" as="geometry">
            <Array as="points">
              <mxPoint x="360" y="860" />
              <mxPoint x="745" y="860" />
            </Array>
          </mxGeometry>
        </mxCell>
        <mxCell id="yBSICujKQYAB_PKDXEbt-76" value="App_Login" style="rounded=0;whiteSpace=wrap;html=1;fontSize=20;" vertex="1" parent="1">
          <mxGeometry x="280" y="750" width="160" height="80" as="geometry" />
        </mxCell>
        <mxCell id="yBSICujKQYAB_PKDXEbt-85" style="edgeStyle=orthogonalEdgeStyle;rounded=0;orthogonalLoop=1;jettySize=auto;html=1;exitX=1;exitY=0.5;exitDx=0;exitDy=0;entryX=0.5;entryY=1;entryDx=0;entryDy=0;" edge="1" parent="1" source="yBSICujKQYAB_PKDXEbt-77" target="yBSICujKQYAB_PKDXEbt-81">
          <mxGeometry relative="1" as="geometry" />
        </mxCell>
        <mxCell id="yBSICujKQYAB_PKDXEbt-77" value="DB2" style="shape=datastore;whiteSpace=wrap;html=1;" vertex="1" parent="1">
          <mxGeometry x="715" y="760" width="60" height="60" as="geometry" />
        </mxCell>
        <mxCell id="yBSICujKQYAB_PKDXEbt-78" value="SGP" style="rounded=0;whiteSpace=wrap;html=1;fontSize=15;" vertex="1" parent="1">
          <mxGeometry x="520" y="770" width="120" height="40" as="geometry" />
        </mxCell>
        <mxCell id="yBSICujKQYAB_PKDXEbt-81" value="API de Usuario" style="rounded=0;whiteSpace=wrap;html=1;" vertex="1" parent="1">
          <mxGeometry x="827" y="480" width="120" height="60" as="geometry" />
        </mxCell>
        <mxCell id="yBSICujKQYAB_PKDXEbt-94" value="PORTAL" style="rounded=0;whiteSpace=wrap;html=1;fontSize=14;" vertex="1" parent="1">
          <mxGeometry y="80" width="260" height="40" as="geometry" />
        </mxCell>
        <mxCell id="yBSICujKQYAB_PKDXEbt-95" value="PROVEEDOR DE IDENTIDAD" style="rounded=0;whiteSpace=wrap;html=1;fontSize=14;" vertex="1" parent="1">
          <mxGeometry x="260" y="80" width="210" height="40" as="geometry" />
        </mxCell>
        <mxCell id="yBSICujKQYAB_PKDXEbt-96" value="PROVEEDOR DE SERVICIO" style="rounded=0;whiteSpace=wrap;html=1;fontSize=14;" vertex="1" parent="1">
          <mxGeometry x="470" y="80" width="210" height="40" as="geometry" />
        </mxCell>
        <mxCell id="yBSICujKQYAB_PKDXEbt-97" value="BASE DE DATOS" style="rounded=0;whiteSpace=wrap;html=1;fontSize=14;" vertex="1" parent="1">
          <mxGeometry x="680" y="80" width="130" height="40" as="geometry" />
        </mxCell>
        <mxCell id="yBSICujKQYAB_PKDXEbt-98" value="GESTIÃN" style="rounded=0;whiteSpace=wrap;html=1;fontSize=14;" vertex="1" parent="1">
          <mxGeometry x="810" y="80" width="150" height="40" as="geometry" />
        </mxCell>
        <mxCell id="yBSICujKQYAB_PKDXEbt-100" style="edgeStyle=orthogonalEdgeStyle;rounded=0;orthogonalLoop=1;jettySize=auto;html=1;entryX=0;entryY=0.5;entryDx=0;entryDy=0;" edge="1" parent="1" source="yBSICujKQYAB_PKDXEbt-101" target="yBSICujKQYAB_PKDXEbt-104">
          <mxGeometry relative="1" as="geometry" />
        </mxCell>
        <mxCell id="yBSICujKQYAB_PKDXEbt-101" value="erp.ucuenca.edu.ec" style="rounded=0;whiteSpace=wrap;html=1;fontSize=14;" vertex="1" parent="1">
          <mxGeometry x="20" y="1069" width="170" height="40" as="geometry" />
        </mxCell>
        <mxCell id="yBSICujKQYAB_PKDXEbt-102" style="edgeStyle=orthogonalEdgeStyle;rounded=0;orthogonalLoop=1;jettySize=auto;html=1;exitX=1;exitY=0.5;exitDx=0;exitDy=0;entryX=0;entryY=0.5;entryDx=0;entryDy=0;" edge="1" parent="1" source="yBSICujKQYAB_PKDXEbt-104" target="yBSICujKQYAB_PKDXEbt-106">
          <mxGeometry relative="1" as="geometry" />
        </mxCell>
        <mxCell id="yBSICujKQYAB_PKDXEbt-103" style="edgeStyle=orthogonalEdgeStyle;rounded=0;orthogonalLoop=1;jettySize=auto;html=1;exitX=0.5;exitY=1;exitDx=0;exitDy=0;entryX=0.5;entryY=1;entryDx=0;entryDy=0;" edge="1" parent="1" source="yBSICujKQYAB_PKDXEbt-104" target="yBSICujKQYAB_PKDXEbt-105">
          <mxGeometry relative="1" as="geometry">
            <Array as="points">
              <mxPoint x="360" y="1159" />
              <mxPoint x="745" y="1159" />
            </Array>
          </mxGeometry>
        </mxCell>
        <mxCell id="yBSICujKQYAB_PKDXEbt-104" value="App_Login" style="rounded=0;whiteSpace=wrap;html=1;fontSize=20;" vertex="1" parent="1">
          <mxGeometry x="280" y="1049" width="160" height="80" as="geometry" />
        </mxCell>
        <mxCell id="yBSICujKQYAB_PKDXEbt-105" value="App_DB" style="shape=datastore;whiteSpace=wrap;html=1;" vertex="1" parent="1">
          <mxGeometry x="715" y="1059" width="60" height="60" as="geometry" />
        </mxCell>
        <mxCell id="yBSICujKQYAB_PKDXEbt-106" value="APP" style="rounded=0;whiteSpace=wrap;html=1;fontSize=15;" vertex="1" parent="1">
          <mxGeometry x="520" y="1069" width="120" height="40" as="geometry" />
        </mxCell>
        <mxCell id="yBSICujKQYAB_PKDXEbt-107" style="edgeStyle=orthogonalEdgeStyle;rounded=0;orthogonalLoop=1;jettySize=auto;html=1;exitX=1;exitY=0.5;exitDx=0;exitDy=0;" edge="1" parent="1" source="yBSICujKQYAB_PKDXEbt-108">
          <mxGeometry relative="1" as="geometry">
            <mxPoint x="240" y="1089" as="targetPoint" />
          </mxGeometry>
        </mxCell>
        <mxCell id="yBSICujKQYAB_PKDXEbt-108" value="dspace.ucuenca.edu.ec" style="rounded=0;whiteSpace=wrap;html=1;fontSize=14;" vertex="1" parent="1">
          <mxGeometry x="20" y="1129" width="170" height="40" as="geometry" />
        </mxCell>
      </root>
    </mxGraphModel>
  </diagram>
</mxfile>
